<svg width="53" height="53" viewBox="0 0 53 53" fill="none" xmlns="http://www.w3.org/2000/svg">
<path d="M13.23 1.23L49.5 3V40.23H42H15L13.23 11.5V6.5V1.23Z" fill="white"/>
<path d="M47.43 0H15.81C12.9115 0 10.54 2.3715 10.54 5.27V36.89C10.54 39.7885 12.9115 42.16 15.81 42.16H47.43C50.3285 42.16 52.7 39.7885 52.7 36.89V5.27C52.7 2.3715 50.3285 0 47.43 0ZM47.43 36.89H15.81V5.27H47.43V36.89ZM27.6675 34.255C31.3038 34.255 34.255 31.3038 34.255 27.6675V13.175H42.16V7.905H31.62V22.4239C30.5133 21.5807 29.1694 21.08 27.6675 21.08C24.0312 21.08 21.08 24.0312 21.08 27.6675C21.08 31.3038 24.0312 34.255 27.6675 34.255ZM5.27 10.54H0V47.43C0 50.3285 2.3715 52.7 5.27 52.7H42.16V47.43H5.27V10.54Z" fill="black"/>
</svg>
